<svg width="65" height="66" viewBox="0 0 65 66" fill="none" xmlns="http://www.w3.org/2000/svg">
<path d="M32.4764 5.6925C35.728 5.6925 38.8445 6.26774 41.7314 7.31828L38.5042 10.5428C33.6202 9.21475 28.4342 9.5377 23.7527 11.4614C19.0711 13.3851 15.1564 16.8018 12.6173 21.1802C10.0781 25.5586 9.0568 30.6532 9.71217 35.672C10.3675 40.6908 12.6628 45.3523 16.2412 48.9319C19.8195 52.5114 24.4803 54.8083 29.4989 55.4653C34.5174 56.1224 39.6124 55.1028 43.9916 52.5651C48.3708 50.0274 51.7888 46.1138 53.7141 41.4329C55.6394 36.7521 55.9641 31.5662 54.6377 26.6817L57.8622 23.4572C58.9407 26.4207 59.491 29.5504 59.488 32.7041C59.488 47.6223 47.3946 59.7157 32.4764 59.7157C17.5582 59.7157 5.46484 47.6223 5.46484 32.7041C5.46484 17.7859 17.5582 5.6925 32.4764 5.6925V5.6925ZM32.4764 16.5004C33.8447 16.4997 35.2077 16.6722 36.5327 17.0135V21.2454C33.9341 20.326 31.1 20.3174 28.4958 21.221C25.8916 22.1245 23.6719 23.8866 22.2011 26.218C20.7304 28.5493 20.0958 31.3114 20.4017 34.0509C20.7076 36.7904 21.9358 39.3445 23.8846 41.294C25.8334 43.2435 28.387 44.4726 31.1264 44.7795C33.8658 45.0864 36.6281 44.4529 38.96 42.9829C41.2919 41.513 43.0548 39.294 43.9593 36.6901C44.8638 34.0862 44.8563 31.2522 43.9378 28.6532H48.1697C49.0146 31.9252 48.8152 35.3796 47.5996 38.5328C46.384 41.686 44.2129 44.3802 41.3902 46.2384C38.5675 48.0966 35.2345 49.0257 31.8576 48.8958C28.4807 48.7659 25.2289 47.5834 22.5573 45.5138C19.8858 43.4443 17.9281 40.5912 16.9583 37.3539C15.9886 34.1167 16.0552 30.6572 17.149 27.4597C18.2427 24.2622 20.3089 21.4867 23.0582 19.5215C25.8075 17.5564 29.1024 16.5001 32.4818 16.5004H32.4764ZM37.8776 32.7041C37.8773 33.865 37.5029 34.9948 36.81 35.9263C36.1171 36.8577 35.1425 37.541 34.0307 37.8751C32.9189 38.2092 31.7291 38.1761 30.6375 37.7809C29.546 37.3857 28.6109 36.6493 27.9707 35.6809C27.3305 34.7125 27.0194 33.5635 27.0834 32.4044C27.1474 31.2453 27.5832 30.1377 28.3262 29.2456C29.0691 28.3536 30.0797 27.7247 31.2081 27.4521C32.3365 27.1795 33.5228 27.2778 34.591 27.7322L39.2361 23.0872L39.2334 14.4749C39.2338 13.9379 39.4475 13.4231 39.8275 13.0436L46.579 6.29204C46.8623 6.00914 47.223 5.81651 47.6157 5.73851C48.0084 5.6605 48.4154 5.70061 48.7852 5.85377C49.1551 6.00692 49.4713 6.26626 49.6939 6.59901C49.9165 6.93177 50.0355 7.32303 50.0358 7.72337V15.1501H57.4625C57.8629 15.1504 58.2541 15.2694 58.5869 15.492C58.9196 15.7146 59.179 16.0308 59.3321 16.4007C59.4853 16.7705 59.5254 17.1775 59.4474 17.5702C59.3694 17.9629 59.1768 18.3236 58.8939 18.6069L52.1423 25.3584C51.7628 25.7384 51.248 25.9521 50.711 25.9525H42.096L37.451 30.5976C37.7264 31.2457 37.8776 31.956 37.8776 32.7041V32.7041ZM49.8711 21.9016L52.5717 19.201H48.0077C47.4705 19.201 46.9553 18.9876 46.5754 18.6077C46.1956 18.2279 45.9822 17.7127 45.9822 17.1755V12.6115L43.2843 15.3121V21.7423C43.3406 21.793 43.3938 21.8472 43.4436 21.9043H49.8711V21.9016Z" fill="#218225"/>
</svg>
