<svg width="66" height="66" viewBox="0 0 66 66" fill="none" xmlns="http://www.w3.org/2000/svg">
<path d="M55.2065 1.28199L56.1887 4.94747L15.6116 15.759L16.5952 19.4296L9.25901 21.3955L10.2419 25.0636L6.57379 26.0465L4.60808 18.7103L0.939941 19.6932L5.85429 38.0337L9.52243 37.0508L7.55671 29.7145L11.2249 28.7316L12.2078 32.3998L19.544 30.434L20.5249 34.0947L28.6217 31.9604C29.1331 32.7176 29.8217 33.3458 30.6274 33.7852L16.9774 61.3124H12.459V65.11H19.3332L31.4466 40.6812V61.3124H27.6491V65.11H39.0416V61.3124H35.2441V40.6812L47.3575 65.11H54.2316V61.3124H49.7132L36.0633 33.7852C37.7252 32.879 38.887 31.1687 39.0259 29.1809L61.1032 23.2888L62.0866 26.9587L65.7548 25.9758L58.8747 0.299194L55.2065 1.28199ZM14.8929 27.7488L13.9099 24.0807L17.5781 23.0978L18.561 26.7659L14.8929 27.7488ZM20.2641 18.4495L49.8327 10.5711L52.7823 21.5791L38.0128 25.5208C36.9819 24.049 35.2747 23.0841 33.3454 23.0841C30.3721 23.0841 27.925 25.3745 27.6722 28.2834L23.2141 29.4586L20.2641 18.4495ZM33.3453 30.6792C32.2983 30.6792 31.4466 29.8275 31.4466 28.7805C31.4466 27.7335 32.2983 26.8817 33.3453 26.8817C34.3923 26.8817 35.2441 27.7335 35.2441 28.7805C35.2441 29.8275 34.3923 30.6792 33.3453 30.6792ZM56.4512 20.6L53.5021 9.59346L57.1716 8.61573L60.1204 19.6208L56.4512 20.6Z" fill="#218225"/>
</svg>
