<svg width="65" height="66" viewBox="0 0 65 66" fill="none" xmlns="http://www.w3.org/2000/svg">
<g clip-path="url(#clip0_1_88)">
<path d="M60.7651 32.6623C52.933 16.998 53.1736 17.4751 53.1236 17.3866C52.778 16.7749 52.1335 16.4214 51.4712 16.4214C51.1961 16.4214 13.4702 16.4166 13.322 16.43C12.681 16.4864 12.1101 16.8685 11.8101 17.4426C11.8051 17.4522 11.7994 17.4613 11.7946 17.4709L4.19901 32.6622C4.19294 32.6742 4.18787 32.6866 4.18218 32.6987C4.17762 32.7081 4.17256 32.7172 4.16825 32.7267C4.16509 32.7336 4.16281 32.7407 4.15977 32.7475C4.15964 32.7477 4.15952 32.748 4.15952 32.7482C3.87253 33.4015 3.9709 34.1749 4.4508 34.7402C4.45675 34.7474 4.4622 34.7548 4.4684 34.7618L31.053 65.1443C31.0561 65.1478 31.0597 65.1508 31.0629 65.1544C31.8089 65.9939 33.1368 66.0146 33.9012 65.1544C33.9043 65.1508 33.9079 65.1478 33.911 65.1443L60.4956 34.7618C60.497 34.7603 60.4983 34.7586 60.4995 34.757C60.9846 34.1991 61.1193 33.3708 60.7651 32.6623ZM48.3987 20.2191L43.5511 29.9141L36.2798 20.2191H48.3987ZM40.0777 31.6126H24.8865L32.4821 21.4852L40.0777 31.6126ZM28.6843 20.2191L21.413 29.914L16.5656 20.2191H28.6843ZM13.4931 22.5664L18.0163 31.6126H8.96999L13.4931 22.5664ZM10.0822 35.4103H19.7727L27.0405 54.7914L10.0822 35.4103ZM32.4821 58.4858L23.8288 35.4103H41.1354L32.4821 58.4858ZM37.9236 54.7915L45.1915 35.4105H54.8819L37.9236 54.7915ZM46.9481 31.6126L51.4712 22.5664L55.9944 31.6126H46.9481Z" fill="#218225"/>
<path d="M32.4819 0.977173C31.4332 0.977173 30.583 1.82736 30.583 2.87604V8.57278C30.583 9.62147 31.4332 10.4717 32.4819 10.4717C33.5306 10.4717 34.3808 9.62147 34.3808 8.57278V2.87604C34.3808 1.82736 33.5306 0.977173 32.4819 0.977173Z" fill="#218225"/>
<path d="M26.2292 9.12812L22.4315 5.33038C21.6901 4.58893 20.4877 4.58893 19.7461 5.33038C19.0045 6.07195 19.0045 7.27419 19.7461 8.01576L23.5439 11.8135C24.2854 12.5551 25.4877 12.5551 26.2292 11.8135C26.9708 11.0719 26.9708 9.86969 26.2292 9.12812Z" fill="#218225"/>
<path d="M45.218 5.33038C44.4766 4.58893 43.2742 4.58893 42.5326 5.33038L38.7349 9.12812C37.9933 9.86969 37.9933 11.0719 38.7349 11.8135C39.4765 12.5551 40.6788 12.555 41.4203 11.8135L45.218 8.01576C45.9596 7.27419 45.9596 6.07195 45.218 5.33038Z" fill="#218225"/>
</g>
<defs>
<clipPath id="clip0_1_88">
<rect width="64.8148" height="64.8148" fill="white" transform="translate(0.0742188 0.977417)"/>
</clipPath>
</defs>
</svg>
